<svg width="506" height="246" viewBox="0 0 506 246" fill="none" xmlns="http://www.w3.org/2000/svg">
<path d="M483.67 231.96C480.406 231.96 477.454 231.216 474.814 229.728C472.174 228.192 470.062 226.008 468.478 223.176C466.942 220.296 466.174 216.792 466.174 212.664C466.174 208.536 466.942 205.056 468.478 202.224C470.014 199.344 472.102 197.16 474.742 195.672C477.382 194.184 480.358 193.44 483.67 193.44C487.27 193.44 490.486 194.256 493.318 195.888C496.198 197.472 498.454 199.728 500.086 202.656C501.718 205.536 502.534 208.872 502.534 212.664C502.534 216.504 501.718 219.864 500.086 222.744C498.454 225.624 496.198 227.88 493.318 229.512C490.486 231.144 487.27 231.96 483.67 231.96ZM464.158 245.568V193.8H469.054V205.176L468.55 212.736L469.27 220.368V245.568H464.158ZM483.31 227.424C485.998 227.424 488.398 226.824 490.51 225.624C492.622 224.376 494.302 222.648 495.55 220.44C496.798 218.184 497.422 215.592 497.422 212.664C497.422 209.736 496.798 207.168 495.55 204.96C494.302 202.752 492.622 201.024 490.51 199.776C488.398 198.528 485.998 197.904 483.31 197.904C480.622 197.904 478.198 198.528 476.038 199.776C473.926 201.024 472.246 202.752 470.998 204.96C469.798 207.168 469.198 209.736 469.198 212.664C469.198 215.592 469.798 218.184 470.998 220.44C472.246 222.648 473.926 224.376 476.038 225.624C478.198 226.824 480.622 227.424 483.31 227.424Z" fill="white"/>
<path d="M435.03 193.44C438.102 193.44 440.766 194.04 443.022 195.24C445.326 196.392 447.102 198.168 448.35 200.568C449.646 202.968 450.294 205.992 450.294 209.64V231.6H445.182V210.144C445.182 206.16 444.222 203.16 442.302 201.144C440.43 199.08 437.766 198.048 434.31 198.048C431.718 198.048 429.462 198.6 427.542 199.704C425.67 200.76 424.206 202.32 423.15 204.384C422.142 206.4 421.638 208.848 421.638 211.728V231.6H416.526V210.144C416.526 206.16 415.566 203.16 413.646 201.144C411.726 199.08 409.038 198.048 405.582 198.048C403.038 198.048 400.806 198.6 398.886 199.704C396.966 200.76 395.478 202.32 394.422 204.384C393.414 206.4 392.91 208.848 392.91 211.728V231.6H387.798V193.8H392.694V204.024L391.902 202.224C393.054 199.488 394.902 197.352 397.446 195.816C400.038 194.232 403.086 193.44 406.59 193.44C410.286 193.44 413.43 194.376 416.022 196.248C418.614 198.072 420.294 200.832 421.062 204.528L419.046 203.736C420.15 200.664 422.094 198.192 424.878 196.32C427.71 194.4 431.094 193.44 435.03 193.44Z" fill="white"/>
<path d="M360.401 231.96C356.465 231.96 353.009 231.144 350.033 229.512C347.057 227.832 344.729 225.552 343.049 222.672C341.369 219.744 340.529 216.408 340.529 212.664C340.529 208.92 341.321 205.608 342.905 202.728C344.537 199.848 346.745 197.592 349.529 195.96C352.361 194.28 355.529 193.44 359.033 193.44C362.585 193.44 365.729 194.256 368.465 195.888C371.249 197.472 373.433 199.728 375.017 202.656C376.601 205.536 377.393 208.872 377.393 212.664C377.393 212.904 377.369 213.168 377.321 213.456C377.321 213.696 377.321 213.96 377.321 214.248H344.417V210.432H374.585L372.569 211.944C372.569 209.208 371.969 206.784 370.769 204.672C369.617 202.512 368.033 200.832 366.017 199.632C364.001 198.432 361.673 197.832 359.033 197.832C356.441 197.832 354.113 198.432 352.049 199.632C349.985 200.832 348.377 202.512 347.225 204.672C346.073 206.832 345.497 209.304 345.497 212.088V212.88C345.497 215.76 346.121 218.304 347.369 220.512C348.665 222.672 350.441 224.376 352.697 225.624C355.001 226.824 357.617 227.424 360.545 227.424C362.849 227.424 364.985 227.016 366.953 226.2C368.969 225.384 370.697 224.136 372.137 222.456L375.017 225.768C373.337 227.784 371.225 229.32 368.681 230.376C366.185 231.432 363.425 231.96 360.401 231.96Z" fill="white"/>
<path d="M300.603 219.072L300.387 212.592L330.915 181.2H337.035L314.787 204.528L311.763 207.768L300.603 219.072ZM295.995 231.6V181.2H301.323V231.6H295.995ZM332.211 231.6L310.467 206.544L314.067 202.656L338.547 231.6H332.211Z" fill="white"/>
<path d="M247.173 231.6V193.8H252.069V204.096L251.565 202.296C252.621 199.416 254.397 197.232 256.893 195.744C259.389 194.208 262.485 193.44 266.181 193.44V198.408C265.989 198.408 265.797 198.408 265.605 198.408C265.413 198.36 265.221 198.336 265.029 198.336C261.045 198.336 257.925 199.56 255.669 202.008C253.413 204.408 252.285 207.84 252.285 212.304V231.6H247.173Z" fill="white"/>
<path d="M219.776 231.96C215.84 231.96 212.384 231.144 209.408 229.512C206.432 227.832 204.104 225.552 202.424 222.672C200.744 219.744 199.904 216.408 199.904 212.664C199.904 208.92 200.696 205.608 202.28 202.728C203.912 199.848 206.12 197.592 208.904 195.96C211.736 194.28 214.904 193.44 218.408 193.44C221.96 193.44 225.104 194.256 227.84 195.888C230.624 197.472 232.808 199.728 234.392 202.656C235.976 205.536 236.768 208.872 236.768 212.664C236.768 212.904 236.744 213.168 236.696 213.456C236.696 213.696 236.696 213.96 236.696 214.248H203.792V210.432H233.96L231.944 211.944C231.944 209.208 231.344 206.784 230.144 204.672C228.992 202.512 227.408 200.832 225.392 199.632C223.376 198.432 221.048 197.832 218.408 197.832C215.816 197.832 213.488 198.432 211.424 199.632C209.36 200.832 207.752 202.512 206.6 204.672C205.448 206.832 204.872 209.304 204.872 212.088V212.88C204.872 215.76 205.496 218.304 206.744 220.512C208.04 222.672 209.816 224.376 212.072 225.624C214.376 226.824 216.992 227.424 219.92 227.424C222.224 227.424 224.36 227.016 226.328 226.2C228.344 225.384 230.072 224.136 231.512 222.456L234.392 225.768C232.712 227.784 230.6 229.32 228.056 230.376C225.56 231.432 222.8 231.96 219.776 231.96Z" fill="white"/>
<path d="M169.971 231.96C166.371 231.96 163.131 231.144 160.251 229.512C157.419 227.88 155.187 225.624 153.555 222.744C151.923 219.816 151.107 216.456 151.107 212.664C151.107 208.824 151.923 205.464 153.555 202.584C155.187 199.704 157.419 197.472 160.251 195.888C163.131 194.256 166.371 193.44 169.971 193.44C173.283 193.44 176.235 194.184 178.827 195.672C181.467 197.16 183.555 199.344 185.091 202.224C186.675 205.056 187.467 208.536 187.467 212.664C187.467 216.744 186.699 220.224 185.163 223.104C183.627 225.984 181.539 228.192 178.899 229.728C176.307 231.216 173.331 231.96 169.971 231.96ZM170.331 227.424C173.019 227.424 175.419 226.824 177.531 225.624C179.691 224.376 181.371 222.648 182.571 220.44C183.819 218.184 184.443 215.592 184.443 212.664C184.443 209.688 183.819 207.096 182.571 204.888C181.371 202.68 179.691 200.976 177.531 199.776C175.419 198.528 173.019 197.904 170.331 197.904C167.691 197.904 165.315 198.528 163.203 199.776C161.091 200.976 159.411 202.68 158.163 204.888C156.915 207.096 156.291 209.688 156.291 212.664C156.291 215.592 156.915 218.184 158.163 220.44C159.411 222.648 161.091 224.376 163.203 225.624C165.315 226.824 167.691 227.424 170.331 227.424ZM184.587 231.6V220.224L185.091 212.592L184.371 204.96V178.176H189.483V231.6H184.587Z" fill="white"/>
<path d="M106.719 193.44C109.791 193.44 112.479 194.04 114.783 195.24C117.135 196.392 118.959 198.168 120.255 200.568C121.599 202.968 122.271 205.992 122.271 209.64V231.6H117.159V210.144C117.159 206.16 116.151 203.16 114.135 201.144C112.167 199.08 109.383 198.048 105.783 198.048C103.095 198.048 100.743 198.6 98.7272 199.704C96.7592 200.76 95.2232 202.32 94.1192 204.384C93.0632 206.4 92.5352 208.848 92.5352 211.728V231.6H87.4232V193.8H92.3192V204.168L91.5272 202.224C92.7272 199.488 94.6472 197.352 97.2872 195.816C99.9272 194.232 103.071 193.44 106.719 193.44Z" fill="white"/>
<path d="M68.6424 231.6V223.248L68.4264 221.88V207.912C68.4264 204.696 67.5144 202.224 65.6904 200.496C63.9144 198.768 61.2504 197.904 57.6984 197.904C55.2504 197.904 52.9224 198.312 50.7144 199.128C48.5064 199.944 46.6344 201.024 45.0984 202.368L42.7944 198.552C44.7144 196.92 47.0184 195.672 49.7064 194.808C52.3944 193.896 55.2264 193.44 58.2024 193.44C63.0984 193.44 66.8664 194.664 69.5064 197.112C72.1944 199.512 73.5384 203.184 73.5384 208.128V231.6H68.6424ZM55.6104 231.96C52.7784 231.96 50.3064 231.504 48.1944 230.592C46.1304 229.632 44.5464 228.336 43.4424 226.704C42.3384 225.024 41.7864 223.104 41.7864 220.944C41.7864 218.976 42.2424 217.2 43.1544 215.616C44.1144 213.984 45.6504 212.688 47.7624 211.728C49.9224 210.72 52.8024 210.216 56.4024 210.216H69.4344V214.032H56.5464C52.8984 214.032 50.3544 214.68 48.9144 215.976C47.5224 217.272 46.8264 218.88 46.8264 220.8C46.8264 222.96 47.6664 224.688 49.3464 225.984C51.0264 227.28 53.3784 227.928 56.4024 227.928C59.2824 227.928 61.7544 227.28 63.8184 225.984C65.9304 224.64 67.4664 222.72 68.4264 220.224L69.5784 223.752C68.6184 226.248 66.9384 228.24 64.5384 229.728C62.1864 231.216 59.2104 231.96 55.6104 231.96Z" fill="white"/>
<path d="M16.776 231.6L0 193.8H5.328L20.736 228.864H18.216L33.84 193.8H38.88L22.032 231.6H16.776Z" fill="white"/>
<path d="M462.515 124.92C468.155 124.92 473.195 124.08 477.635 122.4C482.075 120.72 485.555 117.96 488.075 114.12C490.715 110.28 492.035 105.18 492.035 98.82C492.035 94.14 491.015 90.3 488.975 87.3C486.935 84.18 484.175 81.66 480.695 79.74C477.335 77.7 473.435 75.96 468.995 74.52C464.675 73.08 460.175 71.64 455.495 70.2C450.815 68.76 446.195 67.14 441.635 65.34C437.195 63.42 433.175 61.08 429.575 58.32C426.095 55.56 423.275 52.14 421.115 48.06C419.075 43.86 418.055 38.76 418.055 32.76C418.055 26.16 419.675 20.46 422.915 15.66C426.275 10.74 430.775 6.9 436.415 4.14C442.175 1.38 448.595 0 455.675 0C462.635 0 468.515 1.14 473.315 3.42C478.235 5.7 482.255 8.76 485.375 12.6C488.615 16.44 491.135 20.82 492.935 25.74L486.815 19.44L488.615 1.8H495.455V34.74H488.975C487.895 28.98 485.855 24 482.855 19.8C479.975 15.48 476.315 12.18 471.875 9.9C467.435 7.62 462.455 6.48 456.935 6.48C451.295 6.48 446.555 7.38 442.715 9.18C438.875 10.98 435.935 13.56 433.895 16.92C431.975 20.28 431.015 24.24 431.015 28.8C431.015 33.24 431.915 36.96 433.715 39.96C435.515 42.96 437.975 45.48 441.095 47.52C444.335 49.44 447.995 51.12 452.075 52.56C456.155 53.88 460.535 55.2 465.215 56.52C470.135 57.96 474.935 59.58 479.615 61.38C484.415 63.18 488.735 65.46 492.575 68.22C496.535 70.98 499.655 74.52 501.935 78.84C504.215 83.04 505.355 88.26 505.355 94.5C505.355 102.18 503.375 108.78 499.415 114.3C495.455 119.82 490.295 124.08 483.935 127.08C477.575 129.96 470.675 131.4 463.235 131.4C455.795 131.4 449.075 130.32 443.075 128.16C437.075 125.88 432.035 122.52 427.955 118.08C423.875 113.64 420.995 108 419.315 101.16L423.995 107.82L422.375 129.6H414.995V90.54H421.655C423.695 98.34 426.455 104.82 429.935 109.98C433.535 115.02 437.975 118.8 443.255 121.32C448.655 123.72 455.075 124.92 462.515 124.92Z" fill="white"/>
<path d="M366.771 117.72V13.68C366.771 11.04 365.331 9.3 362.451 8.46C359.571 7.62 356.211 7.2 352.371 7.2H351.291V1.8H398.991V7.2H397.911C394.191 7.2 390.831 7.62 387.831 8.46C384.951 9.3 383.511 11.04 383.511 13.68V117.72C383.511 120.36 384.951 122.1 387.831 122.94C390.831 123.78 394.191 124.2 397.911 124.2H398.991V129.6H351.291V124.2H352.371C356.211 124.2 359.571 123.78 362.451 122.94C365.331 122.1 366.771 120.36 366.771 117.72Z" fill="white"/>
<path d="M217.17 129.6V124.2H219.15C221.43 124.2 223.59 123.84 225.63 123.12C227.67 122.28 229.35 121.02 230.67 119.34C231.99 117.66 232.65 115.44 232.65 112.68V13.68C232.65 11.88 231.93 10.56 230.49 9.72001C229.17 8.76 227.49 8.1 225.45 7.74C223.41 7.38 221.31 7.2 219.15 7.2H217.17V1.8H253.53L320.13 113.4L317.07 114.12V13.32C317.07 11.64 316.47 10.38 315.27 9.54C314.19 8.58 312.63 7.98 310.59 7.74C308.67 7.38 306.39 7.2 303.75 7.2H299.07V1.8H340.11V7.2H338.13C335.85 7.2 333.69 7.62 331.65 8.46C329.61 9.18 327.93 10.38 326.61 12.06C325.29 13.74 324.63 15.96 324.63 18.72V129.6H311.13L237.15 5.04L240.21 4.32V118.08C240.21 119.76 240.75 121.08 241.83 122.04C243.03 122.88 244.65 123.48 246.69 123.84C248.73 124.08 251.01 124.2 253.53 124.2H258.21V129.6H217.17Z" fill="white"/>
<path d="M120.206 78.12H172.586L172.766 84.24H117.686L120.206 78.12ZM142.886 10.26L147.386 10.98L109.226 120.06C109.226 120.78 109.526 121.44 110.126 122.04C110.726 122.64 111.806 123.18 113.366 123.66C115.046 124.02 117.446 124.2 120.566 124.2H125.606V129.6H89.246V124.2H90.506C93.266 124.2 95.846 123.36 98.246 121.68C100.766 120 102.686 117.3 104.006 113.58L143.426 1.8H156.026L197.426 118.08C198.386 120.72 199.826 122.4 201.746 123.12C203.786 123.84 206.126 124.2 208.766 124.2H209.666V129.6H165.746V124.2H168.626C170.666 124.2 172.706 124.14 174.746 124.02C176.906 123.78 178.646 123.54 179.966 123.3C181.406 122.94 182.126 122.58 182.126 122.22L142.886 10.26Z" fill="white"/>
<path d="M39.341 1.8H89.921V7.2H88.841C85.121 7.2 81.761 7.62 78.761 8.46C75.881 9.3 74.441 11.04 74.441 13.68V86.04C74.441 94.44 73.421 101.58 71.381 107.46C69.461 113.22 66.701 117.9 63.101 121.5C59.501 124.98 55.241 127.5 50.321 129.06C45.401 130.62 39.941 131.4 33.941 131.4C28.661 131.4 23.861 130.8 19.541 129.6C15.221 128.28 11.441 126.66 8.20097 124.74C5.08097 122.7 2.50097 120.6 0.460969 118.44V101.16H17.021V122.22C14.741 121.62 12.941 120.78 11.621 119.7C10.301 118.62 9.46097 117.6 9.10097 116.64C8.74097 115.68 8.86097 114.96 9.46097 114.48C10.181 114 11.321 114 12.881 114.48C13.601 116.52 14.921 118.38 16.841 120.06C18.881 121.62 21.341 122.88 24.221 123.84C27.101 124.68 30.341 125.1 33.941 125.1C39.101 125.1 43.421 124.02 46.901 121.86C50.381 119.58 53.021 115.62 54.821 109.98C56.741 104.34 57.701 96.36 57.701 86.04V13.68C57.701 11.88 56.981 10.56 55.541 9.72001C54.221 8.76 52.361 8.1 49.961 7.74C47.681 7.38 45.101 7.2 42.221 7.2H39.341V1.8Z" fill="white"/>
<path d="M433.377 153.6V155.6H73.3772V153.6H433.377Z" fill="white"/>
</svg>
